<?xml version="1.0" encoding="utf-8"?>
<!-- Generated by IcoMoon.io -->
<!DOCTYPE svg PUBLIC "-//W3C//DTD SVG 1.1//EN" "http://www.w3.org/Graphics/SVG/1.1/DTD/svg11.dtd">
<svg version="1.1" xmlns="http://www.w3.org/2000/svg" xmlns:xlink="http://www.w3.org/1999/xlink" width="36" height="36" viewBox="0 0 36 36">
<path d="M29.314 6.687c-3.021-3.022-7.041-4.687-11.314-4.687s-8.291 1.665-11.312 4.687c-3.023 3.021-4.688 7.040-4.688 11.313s1.664 8.291 4.687 11.313c3.022 3.023 7.040 4.687 11.313 4.687 4.275 0 8.293-1.664 11.314-4.687s4.686-7.039 4.686-11.313c0-4.273-1.664-8.292-4.686-11.313zM32 18.006v0zM31.977 17.5h-4.49c-0.078-3.67-0.994-7.304-2.768-10.107-0.689-1.089-1.459-1.973-2.277-2.658 1.994 0.666 3.871 1.778 5.459 3.365 2.605 2.608 3.954 5.986 4.076 9.4zM17.5 18.5v13.46c-1.998-0.197-3.891-1.552-5.373-3.889-1.678-2.648-2.545-6.092-2.622-9.571h7.995zM9.505 17.5c0.077-3.478 0.944-6.921 2.622-9.572 1.482-2.337 3.375-3.691 5.373-3.888v13.46h-7.995zM18.5 18.5h7.996c-0.076 3.479-0.945 6.923-2.623 9.571-1.48 2.34-3.373 3.693-5.373 3.889v-13.46zM18.5 17.5v-13.46c2.002 0.196 3.893 1.549 5.373 3.889 1.678 2.65 2.545 6.093 2.623 9.572h-7.996zM8.102 8.101c1.588-1.588 3.467-2.701 5.463-3.367-0.82 0.685-1.592 1.57-2.281 2.66-1.776 2.803-2.69 6.437-2.768 10.107h-4.493c0.122-3.415 1.472-6.793 4.079-9.4zM4 17.995v0zM4.023 18.5h4.492c0.076 3.67 0.992 7.306 2.768 10.106 0.689 1.090 1.461 1.975 2.281 2.66-1.994-0.666-3.875-1.778-5.463-3.367-2.606-2.606-3.955-5.985-4.078-9.399zM27.9 27.899c-1.588 1.587-3.465 2.699-5.459 3.365 0.818-0.685 1.588-1.569 2.277-2.658 1.773-2.801 2.689-6.437 2.768-10.106h4.49c-0.121 3.414-1.47 6.793-4.076 9.399z" fill="rgb(68, 68, 68)"></path>
</svg>
