<?xml version="1.0" encoding="UTF-8" standalone="no"?>
<!-- Generated by IcoMoon.io -->

<svg
   xmlns:dc="http://purl.org/dc/elements/1.1/"
   xmlns:cc="http://creativecommons.org/ns#"
   xmlns:rdf="http://www.w3.org/1999/02/22-rdf-syntax-ns#"
   xmlns:svg="http://www.w3.org/2000/svg"
   xmlns="http://www.w3.org/2000/svg"
   xmlns:sodipodi="http://sodipodi.sourceforge.net/DTD/sodipodi-0.dtd"
   xmlns:inkscape="http://www.inkscape.org/namespaces/inkscape"
   version="1.1"
   width="36"
   height="36"
   viewBox="0 0 36 36"
   id="svg4254"
   inkscape:version="0.48.5 r10040"
   sodipodi:docname="people.svg"
   inkscape:export-filename="/Applications/MAMP/htdocs/netstats/_assets/icons/people.png"
   inkscape:export-xdpi="89.999992"
   inkscape:export-ydpi="89.999992">
  <metadata
     id="metadata4262">
    <rdf:RDF>
      <cc:Work
         rdf:about="">
        <dc:format>image/svg+xml</dc:format>
        <dc:type
           rdf:resource="http://purl.org/dc/dcmitype/StillImage" />
        <dc:title></dc:title>
      </cc:Work>
    </rdf:RDF>
  </metadata>
  <defs
     id="defs4260" />
  <sodipodi:namedview
     pagecolor="#ffffff"
     bordercolor="#666666"
     borderopacity="1"
     objecttolerance="10"
     gridtolerance="10"
     guidetolerance="10"
     inkscape:pageopacity="0"
     inkscape:pageshadow="2"
     inkscape:window-width="953"
     inkscape:window-height="644"
     id="namedview4258"
     showgrid="false"
     inkscape:zoom="6.5555556"
     inkscape:cx="-0.45762712"
     inkscape:cy="18"
     inkscape:window-x="0"
     inkscape:window-y="0"
     inkscape:window-maximized="0"
     inkscape:current-layer="layer1" />
  <g
     id="g4277">
    <path
       id="path4264"
       d="M 11.543,2 C 7.547,2 4.296,5.25 4.296,9.244 c 0,2.694 1.477,5.05 3.665,6.299 C 4.47,16.887 2,20.159 2,23.972 V 32 c 0,1.104 0.896,2 2,2 h 28 c 1.105,0 2,-0.896 2,-2 v -8.334 c 0,-2.988 -1.793,-5.582 -4.402,-6.846 1.948,-1.208 3.249,-3.365 3.249,-5.82 0,-3.771 -3.07,-6.839 -6.844,-6.839 -3.771,0 -6.842,3.068 -6.842,6.839 0,2.454 1.299,4.61 3.245,5.818 -1.135,0.549 -2.116,1.35 -2.862,2.326 -1.052,-1.596 -2.607,-2.858 -4.452,-3.581 2.207,-1.245 3.701,-3.61 3.701,-6.319 C 18.793,5.25 15.541,2 11.543,2 z"
       style="fill:#ffffff" />
  </g>
  <g
     inkscape:groupmode="layer"
     id="layer1"
     inkscape:label="Layer"
     style="display:inline">
    <path
       d="m 11.543,4 c 2.902,0 5.25,2.349 5.25,5.244 0,2.9 -2.348,5.247 -5.25,5.247 C 8.65,14.491 6.296,12.144 6.296,9.244 6.296,6.349 8.65,4 11.543,4 z m 14.46,2.161 c 2.676,0 4.844,2.167 4.844,4.839 0,2.675 -2.168,4.842 -4.844,4.842 -2.67,0 -4.842,-2.167 -4.842,-4.842 0,-2.672 2.172,-4.839 4.842,-4.839 z M 11.501,16.889 c 4.146,0 7.499,3.17 7.499,7.083 V 32 H 4 V 23.972 C 4,20.06 7.356,16.889 11.501,16.889 z M 26,18 c 3.318,0 6,2.537 6,5.666 V 32 H 20 V 23.666 C 20,20.537 22.686,18 26,18 z M 11.543,2 C 7.547,2 4.296,5.25 4.296,9.244 c 0,2.694 1.477,5.05 3.665,6.299 C 4.47,16.887 2,20.159 2,23.972 V 32 c 0,1.104 0.896,2 2,2 h 28 c 1.105,0 2,-0.896 2,-2 v -8.334 c 0,-2.988 -1.793,-5.582 -4.402,-6.846 1.948,-1.208 3.249,-3.365 3.249,-5.82 0,-3.771 -3.07,-6.839 -6.844,-6.839 -3.771,0 -6.842,3.068 -6.842,6.839 0,2.454 1.299,4.61 3.245,5.818 -1.135,0.549 -2.116,1.35 -2.862,2.326 -1.052,-1.596 -2.607,-2.858 -4.452,-3.581 2.207,-1.245 3.701,-3.61 3.701,-6.319 C 18.793,5.25 15.541,2 11.543,2 z"
       id="path4256"
       inkscape:connector-curvature="0"
       style="fill:#444444" />
    <g
       id="g4490"
       style="opacity:0.75">
      <g
         id="g5014"
         style="opacity:0.75">
        <path
           inkscape:connector-curvature="0"
           style="fill:#ffffff"
           d="m 11.543,4 c 2.902,0 5.25,2.349 5.25,5.244 0,2.9 -2.348,5.247 -5.25,5.247 C 8.65,14.491 6.296,12.144 6.296,9.244 6.296,6.349 8.65,4 11.543,4 z"
           id="path4274" />
        <path
           inkscape:connector-curvature="0"
           style="fill:#ffffff"
           d="m 26.003,6.161 c 2.676,0 4.844,2.167 4.844,4.839 0,2.675 -2.168,4.842 -4.844,4.842 -2.67,0 -4.842,-2.167 -4.842,-4.842 0,-2.672 2.172,-4.839 4.842,-4.839 z"
           id="path4272" />
        <path
           inkscape:connector-curvature="0"
           style="fill:#ffffff"
           d="m 11.501,16.889 c 4.146,0 7.499,3.17 7.499,7.083 V 32 H 4 v -8.028 c 0,-3.912 3.356,-7.083 7.501,-7.083 z"
           id="path4270" />
        <path
           inkscape:connector-curvature="0"
           style="fill:#ffffff"
           d="m 26,18 c 3.318,0 6,2.537 6,5.666 V 32 H 20 V 23.666 C 20,20.537 22.686,18 26,18 z"
           id="path4268" />
      </g>
    </g>
    <g
       inkscape:groupmode="layer"
       id="layer2"
       inkscape:label="Layer#1"
       style="display:inline" />
  </g>
  <g
     inkscape:groupmode="layer"
     id="layer3"
     inkscape:label="Layer#2"
     style="display:none" />
</svg>
