<?xml version="1.0" encoding="utf-8"?>
<!-- Generated by IcoMoon.io -->
<!DOCTYPE svg PUBLIC "-//W3C//DTD SVG 1.1//EN" "http://www.w3.org/Graphics/SVG/1.1/DTD/svg11.dtd">
<svg version="1.1" xmlns="http://www.w3.org/2000/svg" xmlns:xlink="http://www.w3.org/1999/xlink" width="36" height="36" viewBox="0 0 36 36">
<path d="M11.543 4c2.902 0 5.25 2.349 5.25 5.244 0 2.9-2.348 5.247-5.25 5.247-2.893 0-5.247-2.347-5.247-5.247 0-2.895 2.354-5.244 5.247-5.244zM26.003 6.161c2.676 0 4.844 2.167 4.844 4.839 0 2.675-2.168 4.842-4.844 4.842-2.67 0-4.842-2.167-4.842-4.842 0-2.672 2.172-4.839 4.842-4.839zM11.501 16.889c4.146 0 7.499 3.17 7.499 7.083v8.028h-15v-8.028c0-3.912 3.356-7.083 7.501-7.083zM26 18c3.318 0 6 2.537 6 5.666v8.334h-12v-8.334c0-3.129 2.686-5.666 6-5.666zM11.543 2c-3.996 0-7.247 3.25-7.247 7.244 0 2.694 1.477 5.050 3.665 6.299-3.491 1.344-5.961 4.616-5.961 8.429v8.028c0 1.104 0.896 2 2 2h28c1.105 0 2-0.896 2-2v-8.334c0-2.988-1.793-5.582-4.402-6.846 1.948-1.208 3.249-3.365 3.249-5.82 0-3.771-3.070-6.839-6.844-6.839-3.771 0-6.842 3.068-6.842 6.839 0 2.454 1.299 4.61 3.245 5.818-1.135 0.549-2.116 1.35-2.862 2.326-1.052-1.596-2.607-2.858-4.452-3.581 2.207-1.245 3.701-3.61 3.701-6.319 0-3.994-3.252-7.244-7.25-7.244z" fill="rgb(68, 68, 68)"></path>
</svg>
