<?xml version="1.0" encoding="utf-8"?>
<!-- Generated by IcoMoon.io -->
<!DOCTYPE svg PUBLIC "-//W3C//DTD SVG 1.1//EN" "http://www.w3.org/Graphics/SVG/1.1/DTD/svg11.dtd">
<svg version="1.1" xmlns="http://www.w3.org/2000/svg" xmlns:xlink="http://www.w3.org/1999/xlink" width="36" height="36" viewBox="0 0 36 36">
<path d="M7.815 4.047c0.979 0 1.944 0.466 2.692 1.213l5.27 5.459c-0.15 1.362 0.001 2.763 0.514 4.088l-2.455 2.455c-0.078 0.005-0.15 0.017-0.231 0.017-0.98 0-1.604-0.372-2.603-1.119v0.001l-2.274-2.167-3.607-3.499c-0.746-0.746-1.121-1.714-1.121-2.693s0.367-1.932 1.116-2.68c0.747-0.747 1.72-1.075 2.699-1.075zM24.335 4.048h0.021c0.201 0.001 0.401 0.023 0.603 0.040 0.128 0.010 0.259 0.009 0.387 0.025 0.328 0.044 0.654 0.108 0.976 0.195l-4.688 4.687 0.903 4.515 4.516 0.903 4.686-4.686c0.681 2.554 0.026 5.39-1.978 7.395-0.265 0.265-0.55 0.497-0.84 0.714-0.062 0.047-0.125 0.095-0.188 0.14-0.289 0.201-0.586 0.384-0.894 0.54-0.050 0.024-0.102 0.046-0.151 0.069-0.285 0.139-0.576 0.257-0.873 0.355-0.056 0.019-0.11 0.041-0.167 0.058-0.325 0.102-0.656 0.178-0.99 0.234-0.072 0.011-0.144 0.020-0.215 0.030-0.332 0.047-0.665 0.077-0.999 0.079-0.015 0-0.028 0.002-0.042 0.002h-0.017c-0.344 0-0.686-0.029-1.026-0.075-0.099-0.014-0.195-0.034-0.294-0.050-0.258-0.045-0.515-0.104-0.769-0.175-0.099-0.027-0.197-0.054-0.295-0.085-0.336-0.108-0.668-0.233-0.989-0.39l-12.244 12.247c-0.489 0.489-1.129 0.733-1.768 0.733s-1.28-0.244-1.768-0.732c-0.977-0.977-0.977-2.559 0-3.536l12.246-12.246c-0.040-0.083-0.063-0.172-0.1-0.256-0.023-0.051-0.042-0.103-0.062-0.156-0.374-0.9-0.581-1.85-0.6-2.808-0.004-0.177 0.007-0.354 0.015-0.532 0.008-0.152 0.020-0.303 0.036-0.455 0.018-0.165 0.033-0.331 0.062-0.495 0.049-0.277 0.114-0.553 0.194-0.825 0.037-0.128 0.083-0.254 0.127-0.381 0.082-0.233 0.175-0.464 0.28-0.689 0.036-0.078 0.067-0.159 0.106-0.236 0.152-0.297 0.33-0.585 0.523-0.864 0.052-0.074 0.105-0.147 0.16-0.221 0.216-0.287 0.445-0.568 0.707-0.83 0.226-0.225 0.465-0.427 0.71-0.619 0.072-0.056 0.146-0.109 0.221-0.162 0.187-0.136 0.377-0.262 0.572-0.377 0.075-0.045 0.149-0.092 0.226-0.134 0.264-0.145 0.535-0.279 0.812-0.39 0.014-0.006 0.029-0.010 0.043-0.016 0.265-0.104 0.534-0.19 0.809-0.265 0.083-0.023 0.168-0.042 0.252-0.062 0.219-0.051 0.439-0.093 0.661-0.125 0.080-0.012 0.159-0.025 0.239-0.034 0.288-0.034 0.576-0.054 0.864-0.054zM21.239 19.758c0.344 0.133 0.698 0.234 1.056 0.322l1.413 1.523 4.231 1.631 4.061 5.252-3.462 3.466-5.245-4.061-1.617-4.232-2.247-2.091 1.81-1.81zM7.815 2.047c-1.581 0-3.041 0.589-4.112 1.659-1.099 1.099-1.704 2.554-1.703 4.098 0 1.545 0.605 3.003 1.706 4.104l3.63 3.522 2.286 2.18c0.057 0.054 0.119 0.106 0.183 0.154 0.418 0.312 0.829 0.605 1.266 0.847l-7.253 7.254c-1.755 1.754-1.755 4.61 0 6.364 0.85 0.85 1.979 1.318 3.182 1.318s2.332-0.469 3.181-1.318l8.564-8.565 1.228 1.144 1.451 3.798c0.131 0.342 0.354 0.642 0.644 0.867l5.245 4.061c0.362 0.282 0.794 0.419 1.224 0.419 0.516 0 1.028-0.197 1.416-0.587l3.462-3.465c0.711-0.712 0.782-1.841 0.167-2.636l-4.061-5.254c-0.224-0.289-0.521-0.512-0.862-0.644l-1.296-0.499c0.027-0.009 0.055-0.019 0.082-0.029 0.378-0.127 0.752-0.277 1.112-0.452 0.074-0.032 0.133-0.061 0.19-0.089 0.373-0.189 0.743-0.413 1.128-0.682 0.079-0.055 0.145-0.104 0.209-0.152 0.448-0.334 0.785-0.621 1.091-0.929 2.427-2.427 3.383-6.001 2.496-9.325-0.185-0.69-0.724-1.23-1.414-1.416-0.172-0.046-0.346-0.068-0.519-0.068-0.523 0-1.034 0.206-1.414 0.586l-3.929 3.929-2.159-0.431-0.432-2.159 3.931-3.93c0.506-0.506 0.703-1.242 0.517-1.933s-0.725-1.229-1.416-1.414c-0.395-0.105-0.808-0.187-1.228-0.243-0.143-0.019-0.279-0.027-0.417-0.033l-0.083-0.004-0.104-0.010c-0.213-0.018-0.426-0.035-0.64-0.036h-0.030c-0.342 0-0.698 0.021-1.088 0.065-0.079 0.009-0.163 0.022-0.248 0.035l-0.056 0.008c-0.271 0.039-0.549 0.092-0.824 0.156l-0.082 0.019c-0.087 0.021-0.175 0.042-0.261 0.067-0.342 0.092-0.666 0.198-0.975 0.319-0.040 0.015-0.086 0.033-0.12 0.049-0.287 0.114-0.624 0.276-0.988 0.475-0.080 0.045-0.157 0.091-0.233 0.137l-0.055 0.032c-0.236 0.139-0.482 0.301-0.724 0.477-0.082 0.057-0.181 0.129-0.277 0.205-0.346 0.27-0.63 0.518-0.891 0.779-0.297 0.296-0.58 0.627-0.891 1.042-0.072 0.097-0.138 0.187-0.202 0.279-0.262 0.378-0.478 0.735-0.663 1.095-0.047 0.094-0.086 0.18-0.123 0.267-0.014 0.031-0.028 0.061-0.043 0.093l-3.644-3.776c-1.186-1.184-2.645-1.824-4.131-1.824z" fill="rgb(68, 68, 68)"></path>
</svg>
