<?xml version="1.0" encoding="UTF-8" standalone="no"?>
<!-- Generated by IcoMoon.io -->

<svg
   xmlns:dc="http://purl.org/dc/elements/1.1/"
   xmlns:cc="http://creativecommons.org/ns#"
   xmlns:rdf="http://www.w3.org/1999/02/22-rdf-syntax-ns#"
   xmlns:svg="http://www.w3.org/2000/svg"
   xmlns="http://www.w3.org/2000/svg"
   xmlns:sodipodi="http://sodipodi.sourceforge.net/DTD/sodipodi-0.dtd"
   xmlns:inkscape="http://www.inkscape.org/namespaces/inkscape"
   version="1.1"
   width="36"
   height="36"
   viewBox="0 0 36 36"
   id="svg4357"
   inkscape:version="0.48.5 r10040"
   sodipodi:docname="globe.svg">
  <metadata
     id="metadata4365">
    <rdf:RDF>
      <cc:Work
         rdf:about="">
        <dc:format>image/svg+xml</dc:format>
        <dc:type
           rdf:resource="http://purl.org/dc/dcmitype/StillImage" />
      </cc:Work>
    </rdf:RDF>
  </metadata>
  <defs
     id="defs4363" />
  <sodipodi:namedview
     pagecolor="#ffffff"
     bordercolor="#666666"
     borderopacity="1"
     objecttolerance="10"
     gridtolerance="10"
     guidetolerance="10"
     inkscape:pageopacity="0"
     inkscape:pageshadow="2"
     inkscape:window-width="640"
     inkscape:window-height="480"
     id="namedview4361"
     showgrid="false"
     inkscape:zoom="6.5555556"
     inkscape:cx="18"
     inkscape:cy="18"
     inkscape:window-x="0"
     inkscape:window-y="0"
     inkscape:window-maximized="0"
     inkscape:current-layer="svg4357" />
  <g
     id="g4391"
     style="fill:#ffffff;opacity:0.75">
    <path
       id="path4389"
       d="M 29.314,6.687 C 26.293,3.665 22.273,2 18,2 13.727,2 9.709,3.665 6.688,6.687 3.665,9.708 2,13.727 2,18 2,22.273 3.664,26.291 6.687,29.313 9.709,32.336 13.727,34 18,34 22.275,34 26.293,32.336 29.314,29.313 32.335,26.29 34,22.274 34,18 34,13.727 32.336,9.708 29.314,6.687 z"
       style="fill:#ffffff" />
    <path
       id="path4387"
       d="m 32,18.006 v 0 z"
       style="fill:#ffffff" />
    <path
       id="path4385"
       d="m 31.977,17.5 h -4.49 C 27.409,13.83 26.493,10.196 24.719,7.393 24.03,6.304 23.26,5.42 22.442,4.735 c 1.994,0.666 3.871,1.778 5.459,3.365 2.605,2.608 3.954,5.986 4.076,9.4 z"
       style="fill:#ffffff" />
    <path
       id="path4383"
       d="M 17.5,18.5 V 31.96 C 15.502,31.763 13.609,30.408 12.127,28.071 10.449,25.423 9.582,21.979 9.505,18.5 H 17.5 z"
       style="fill:#ffffff" />
    <path
       id="path4381"
       d="M 9.505,17.5 C 9.582,14.022 10.449,10.579 12.127,7.928 13.609,5.591 15.502,4.237 17.5,4.04 V 17.5 H 9.505 z"
       style="fill:#ffffff" />
    <path
       id="path4379"
       d="m 18.5,18.5 h 7.996 c -0.076,3.479 -0.945,6.923 -2.623,9.571 -1.48,2.34 -3.373,3.693 -5.373,3.889 V 18.5 z"
       style="fill:#ffffff" />
    <path
       id="path4377"
       d="M 18.5,17.5 V 4.04 c 2.002,0.196 3.893,1.549 5.373,3.889 1.678,2.65 2.545,6.093 2.623,9.572 H 18.5 z"
       style="fill:#ffffff" />
    <path
       id="path4375"
       d="M 8.102,8.101 C 9.69,6.513 11.569,5.4 13.565,4.734 c -0.82,0.685 -1.592,1.57 -2.281,2.66 -1.776,2.803 -2.69,6.437 -2.768,10.107 H 4.023 c 0.122,-3.415 1.472,-6.793 4.079,-9.4 z"
       style="fill:#ffffff" />
    <path
       id="path4373"
       d="m 4,17.995 v 0 z"
       style="fill:#ffffff" />
    <path
       id="path4371"
       d="m 4.023,18.5 h 4.492 c 0.076,3.67 0.992,7.306 2.768,10.106 0.689,1.09 1.461,1.975 2.281,2.66 C 11.57,30.6 9.689,29.488 8.101,27.899 5.495,25.293 4.146,21.914 4.023,18.5 z"
       style="fill:#ffffff" />
    <path
       id="path4367"
       d="m 27.9,27.899 c -1.588,1.587 -3.465,2.699 -5.459,3.365 0.818,-0.685 1.588,-1.569 2.277,-2.658 1.773,-2.801 2.689,-6.437 2.768,-10.106 h 4.49 c -0.121,3.414 -1.47,6.793 -4.076,9.399 z"
       style="fill:#ffffff" />
  </g>
  <path
     d="M29.314 6.687c-3.021-3.022-7.041-4.687-11.314-4.687s-8.291 1.665-11.312 4.687c-3.023 3.021-4.688 7.040-4.688 11.313s1.664 8.291 4.687 11.313c3.022 3.023 7.040 4.687 11.313 4.687 4.275 0 8.293-1.664 11.314-4.687s4.686-7.039 4.686-11.313c0-4.273-1.664-8.292-4.686-11.313zM32 18.006v0zM31.977 17.5h-4.49c-0.078-3.67-0.994-7.304-2.768-10.107-0.689-1.089-1.459-1.973-2.277-2.658 1.994 0.666 3.871 1.778 5.459 3.365 2.605 2.608 3.954 5.986 4.076 9.4zM17.5 18.5v13.46c-1.998-0.197-3.891-1.552-5.373-3.889-1.678-2.648-2.545-6.092-2.622-9.571h7.995zM9.505 17.5c0.077-3.478 0.944-6.921 2.622-9.572 1.482-2.337 3.375-3.691 5.373-3.888v13.46h-7.995zM18.5 18.5h7.996c-0.076 3.479-0.945 6.923-2.623 9.571-1.48 2.34-3.373 3.693-5.373 3.889v-13.46zM18.5 17.5v-13.46c2.002 0.196 3.893 1.549 5.373 3.889 1.678 2.65 2.545 6.093 2.623 9.572h-7.996zM8.102 8.101c1.588-1.588 3.467-2.701 5.463-3.367-0.82 0.685-1.592 1.57-2.281 2.66-1.776 2.803-2.69 6.437-2.768 10.107h-4.493c0.122-3.415 1.472-6.793 4.079-9.4zM4 17.995v0zM4.023 18.5h4.492c0.076 3.67 0.992 7.306 2.768 10.106 0.689 1.090 1.461 1.975 2.281 2.66-1.994-0.666-3.875-1.778-5.463-3.367-2.606-2.606-3.955-5.985-4.078-9.399zM27.9 27.899c-1.588 1.587-3.465 2.699-5.459 3.365 0.818-0.685 1.588-1.569 2.277-2.658 1.773-2.801 2.689-6.437 2.768-10.106h4.49c-0.121 3.414-1.47 6.793-4.076 9.399z"
     fill="rgb(68, 68, 68)"
     id="path4359" />
</svg>
