<?xml version="1.0" encoding="UTF-8" standalone="no"?>
<!-- Generator: Adobe Illustrator 15.1.0, SVG Export Plug-In  -->

<svg
   xmlns:dc="http://purl.org/dc/elements/1.1/"
   xmlns:cc="http://creativecommons.org/ns#"
   xmlns:rdf="http://www.w3.org/1999/02/22-rdf-syntax-ns#"
   xmlns:svg="http://www.w3.org/2000/svg"
   xmlns="http://www.w3.org/2000/svg"
   xmlns:sodipodi="http://sodipodi.sourceforge.net/DTD/sodipodi-0.dtd"
   xmlns:inkscape="http://www.inkscape.org/namespaces/inkscape"
   version="1.1"
   x="0px"
   y="0px"
   width="106.20079"
   height="48"
   viewBox="-0.578125 0.1933594 106.20079 48"
   overflow="visible"
   enable-background="new -0.578125 0.1933594 260 260"
   xml:space="preserve"
   id="svg3302"
   inkscape:version="0.48.5 r10040"
   sodipodi:docname="netlogo.svg"
   style="overflow:visible"
   inkscape:export-filename="/Applications/MAMP/htdocs/netstats/_assets/icons/netlogo.png"
   inkscape:export-xdpi="90"
   inkscape:export-ydpi="90"><metadata
     id="metadata3344"><rdf:RDF><cc:Work
         rdf:about=""><dc:format>image/svg+xml</dc:format><dc:type
           rdf:resource="http://purl.org/dc/dcmitype/StillImage" /><dc:title></dc:title></cc:Work></rdf:RDF></metadata><sodipodi:namedview
     pagecolor="#ffffff"
     bordercolor="#666666"
     borderopacity="1"
     objecttolerance="10"
     gridtolerance="10"
     guidetolerance="10"
     inkscape:pageopacity="0"
     inkscape:pageshadow="2"
     inkscape:window-width="967"
     inkscape:window-height="562"
     id="namedview3342"
     showgrid="false"
     fit-margin-top="0"
     fit-margin-left="0"
     fit-margin-right="0"
     fit-margin-bottom="0"
     inkscape:zoom="0.90769231"
     inkscape:cx="-32.35798"
     inkscape:cy="-11.91016"
     inkscape:window-x="0"
     inkscape:window-y="0"
     inkscape:window-maximized="0"
     inkscape:current-layer="svg3302" /><defs
     id="defs3304" /><path
     d="m 44.983483,41.479301 -3.300251,-0.820179 c -0.0126,-0.0052 -0.02429,-0.01072 -0.03909,-0.01576 -0.39494,-0.131857 -0.631527,-0.411349 -0.631527,-0.876326 0,-0.0126 -0.0019,-0.0208 -0.0026,-0.03153 V 23.958507 c 0,-12.957158 -10.531654,-15.7561566 -17.420163,-15.7561566 -3.219179,0 -7.197334,0.83216 -10.591904,2.7989976 L 12.152854,8.9433454 -0.57812541,10.314296 v 4.994223 l 5.64313231,0.964965 c 0.3075648,0.128073 0.502829,0.358037 0.5409986,0.713236 0,2.348849 6.312e-4,9.602649 6.312e-4,9.602649 l 0.00883,-0.0098 v 13.194383 c 0,0.0019 -6.312e-4,0.0039 -6.312e-4,0.0065 0,0.464344 -0.2369037,0.743836 -0.6315333,0.876953 -0.02997,0.01008 -0.053945,0.01958 -0.075709,0.02965 l -3.119476,0.792394 v 5.914082 h 0.6633943 3.1639756 10.6101999 3.599615 v -5.914082 l -3.017292,-0.84288 c -0.363084,-0.13943 -0.580114,-0.413243 -0.580114,-0.856138 0,-0.0082 -0.0016,-0.01324 -0.0022,-0.0208 V 23.718764 c 0,-6.718795 6.057925,-6.718795 7.333294,-6.718795 9.69e-4,0 0.0019,3.15e-4 0.0028,3.15e-4 0.0088,0 0.01956,-3.15e-4 0.02808,-3.15e-4 1.098085,0 3.095523,0.198418 4.658899,1.32868 1.263382,0.908184 2.24475,2.41604 2.24475,4.909998 v 9.851541 h -0.0028 v 6.591036 c -0.0044,0.02461 -0.0079,0.05175 -0.0079,0.0858 0,0.464977 -0.236904,0.744468 -0.631849,0.876326 -0.0022,0.0013 -0.0038,0.0026 -0.006,0.0032 l -2.982276,0.83279 v 5.914081 h 3.630844 10.516511 3.310026 0.663397 v -5.914075 z m 9.709274,-17.760537 c 0,-6.718795 6.017229,-6.718795 7.284715,-6.718795 1.979137,0 6.888819,0.64005 6.888819,6.238678 v 0.504407 l -14.173534,-0.02429 z m 0,8.077443 h 24.704557 v -7.8377 c 0,-12.957158 -10.531023,-15.7561566 -17.419842,-15.7561566 -7.126357,0 -17.974412,3.5188576 -17.974412,14.9564876 v 9.997595 c 0,11.437627 11.08527,15.036926 18.211627,15.036926 8.632007,0 13.370088,-2.696472 16.854559,-4.775926 v -6.261711 h -9.649024 c 0,0 -2.770921,2.639064 -7.205535,2.639064 -1.266221,0 -7.52193,-0.479481 -7.52193,-7.197963 v -0.800616 z m 39.412157,5.19927 V 16.925206 H 104.0227 V 9.0017034 h -9.917786 v -8.808344 l -10.798523,1.158652 v 7.649692 h -3.608137 v 7.9235026 h 3.608137 v 20.230516 c 0,10.478027 9.598548,10.478027 12.877977,10.478027 4.398652,0 9.438302,-2.39995 9.438302,-2.39995 v -7.198598 h -5.679385 c 0,0 -0.959601,1.199975 -3.439047,1.199975 -1.599341,0 -2.399324,-0.639732 -2.399324,-2.239699"
     id="path3312"
     inkscape:connector-curvature="0"
     style="fill:#679e37;fill-opacity:1" /></svg>