<?xml version="1.0" encoding="UTF-8" standalone="no"?>
<!-- Generated by IcoMoon.io -->

<svg
   xmlns:dc="http://purl.org/dc/elements/1.1/"
   xmlns:cc="http://creativecommons.org/ns#"
   xmlns:rdf="http://www.w3.org/1999/02/22-rdf-syntax-ns#"
   xmlns:svg="http://www.w3.org/2000/svg"
   xmlns="http://www.w3.org/2000/svg"
   xmlns:sodipodi="http://sodipodi.sourceforge.net/DTD/sodipodi-0.dtd"
   xmlns:inkscape="http://www.inkscape.org/namespaces/inkscape"
   version="1.1"
   width="36"
   height="36"
   viewBox="0 0 36 36"
   id="svg4449"
   inkscape:version="0.48.5 r10040"
   sodipodi:docname="wrench_screwdriver.svg">
  <metadata
     id="metadata4457">
    <rdf:RDF>
      <cc:Work
         rdf:about="">
        <dc:format>image/svg+xml</dc:format>
        <dc:type
           rdf:resource="http://purl.org/dc/dcmitype/StillImage" />
      </cc:Work>
    </rdf:RDF>
  </metadata>
  <defs
     id="defs4455" />
  <sodipodi:namedview
     pagecolor="#ffffff"
     bordercolor="#666666"
     borderopacity="1"
     objecttolerance="10"
     gridtolerance="10"
     guidetolerance="10"
     inkscape:pageopacity="0"
     inkscape:pageshadow="2"
     inkscape:window-width="640"
     inkscape:window-height="480"
     id="namedview4453"
     showgrid="false"
     inkscape:zoom="6.5555556"
     inkscape:cx="18"
     inkscape:cy="18"
     inkscape:window-x="0"
     inkscape:window-y="0"
     inkscape:window-maximized="0"
     inkscape:current-layer="svg4449" />
  <g
     id="g4474"
     style="fill:#ffffff;opacity:0.75">
    <path
       id="path4472"
       d="m 7.815,4.047 c 0.979,0 1.944,0.466 2.692,1.213 l 5.27,5.459 c -0.15,1.362 0.001,2.763 0.514,4.088 l -2.455,2.455 c -0.078,0.005 -0.15,0.017 -0.231,0.017 -0.98,0 -1.604,-0.372 -2.603,-1.119 v 0.001 L 8.728,13.994 5.121,10.495 C 4.375,9.749 4,8.781 4,7.802 4,6.823 4.367,5.87 5.116,5.122 5.863,4.375 6.836,4.047 7.815,4.047 z"
       style="fill:#ffffff" />
    <path
       id="path4470"
       d="m 24.335,4.048 h 0.021 c 0.201,0.001 0.401,0.023 0.603,0.04 0.128,0.01 0.259,0.009 0.387,0.025 0.328,0.044 0.654,0.108 0.976,0.195 l -4.688,4.687 0.903,4.515 4.516,0.903 4.686,-4.686 c 0.681,2.554 0.026,5.39 -1.978,7.395 -0.265,0.265 -0.55,0.497 -0.84,0.714 -0.062,0.047 -0.125,0.095 -0.188,0.14 -0.289,0.201 -0.586,0.384 -0.894,0.54 -0.05,0.024 -0.102,0.046 -0.151,0.069 -0.285,0.139 -0.576,0.257 -0.873,0.355 -0.056,0.019 -0.11,0.041 -0.167,0.058 -0.325,0.102 -0.656,0.178 -0.99,0.234 -0.072,0.011 -0.144,0.02 -0.215,0.03 -0.332,0.047 -0.665,0.077 -0.999,0.079 -0.015,0 -0.028,0.002 -0.042,0.002 h -0.017 c -0.344,0 -0.686,-0.029 -1.026,-0.075 -0.099,-0.014 -0.195,-0.034 -0.294,-0.05 -0.258,-0.045 -0.515,-0.104 -0.769,-0.175 -0.099,-0.027 -0.197,-0.054 -0.295,-0.085 -0.336,-0.108 -0.668,-0.233 -0.989,-0.39 L 8.768,30.815 C 8.279,31.304 7.639,31.548 7,31.548 c -0.639,0 -1.28,-0.244 -1.768,-0.732 -0.977,-0.977 -0.977,-2.559 0,-3.536 L 17.478,15.034 c -0.04,-0.083 -0.063,-0.172 -0.1,-0.256 -0.023,-0.051 -0.042,-0.103 -0.062,-0.156 -0.374,-0.9 -0.581,-1.85 -0.6,-2.808 -0.004,-0.177 0.007,-0.354 0.015,-0.532 0.008,-0.152 0.02,-0.303 0.036,-0.455 0.018,-0.165 0.033,-0.331 0.062,-0.495 0.049,-0.277 0.114,-0.553 0.194,-0.825 0.037,-0.128 0.083,-0.254 0.127,-0.381 0.082,-0.233 0.175,-0.464 0.28,-0.689 0.036,-0.078 0.067,-0.159 0.106,-0.236 0.152,-0.297 0.33,-0.585 0.523,-0.864 0.052,-0.074 0.105,-0.147 0.16,-0.221 0.216,-0.287 0.445,-0.568 0.707,-0.83 0.226,-0.225 0.465,-0.427 0.71,-0.619 0.072,-0.056 0.146,-0.109 0.221,-0.162 0.187,-0.136 0.377,-0.262 0.572,-0.377 0.075,-0.045 0.149,-0.092 0.226,-0.134 0.264,-0.145 0.535,-0.279 0.812,-0.39 0.014,-0.006 0.029,-0.01 0.043,-0.016 0.265,-0.104 0.534,-0.19 0.809,-0.265 C 22.402,4.3 22.487,4.281 22.571,4.261 22.79,4.21 23.01,4.168 23.232,4.136 23.312,4.124 23.391,4.111 23.471,4.102 23.759,4.068 24.047,4.048 24.335,4.048 z"
       style="fill:#ffffff" />
    <path
       id="path4468"
       d="m 21.239,19.758 c 0.344,0.133 0.698,0.234 1.056,0.322 l 1.413,1.523 4.231,1.631 4.061,5.252 -3.462,3.466 -5.245,-4.061 -1.617,-4.232 -2.247,-2.091 1.81,-1.81 z"
       style="fill:#ffffff" />
    <path
       id="path4459"
       d="M 7.815,2.047 C 6.234,2.047 4.774,2.636 3.703,3.706 2.604,4.805 1.999,6.26 2,7.804 c 0,1.545 0.605,3.003 1.706,4.104 l 3.63,3.522 2.286,2.18 c 0.057,0.054 0.119,0.106 0.183,0.154 0.418,0.312 0.829,0.605 1.266,0.847 l -7.253,7.254 c -1.755,1.754 -1.755,4.61 0,6.364 0.85,0.85 1.979,1.318 3.182,1.318 1.203,0 2.332,-0.469 3.181,-1.318 l 8.564,-8.565 1.228,1.144 1.451,3.798 c 0.131,0.342 0.354,0.642 0.644,0.867 l 5.245,4.061 c 0.362,0.282 0.794,0.419 1.224,0.419 0.516,0 1.028,-0.197 1.416,-0.587 l 3.462,-3.465 c 0.711,-0.712 0.782,-1.841 0.167,-2.636 L 29.521,22.011 C 29.297,21.722 29,21.499 28.659,21.367 l -1.296,-0.499 c 0.027,-0.009 0.055,-0.019 0.082,-0.029 0.378,-0.127 0.752,-0.277 1.112,-0.452 0.074,-0.032 0.133,-0.061 0.19,-0.089 0.373,-0.189 0.743,-0.413 1.128,-0.682 0.079,-0.055 0.145,-0.104 0.209,-0.152 0.448,-0.334 0.785,-0.621 1.091,-0.929 2.427,-2.427 3.383,-6.001 2.496,-9.325 C 33.486,8.52 32.947,7.98 32.257,7.794 32.085,7.748 31.911,7.726 31.738,7.726 c -0.523,0 -1.034,0.206 -1.414,0.586 L 26.395,12.241 24.236,11.81 23.804,9.651 27.735,5.721 C 28.241,5.215 28.438,4.479 28.252,3.788 28.066,3.097 27.527,2.559 26.836,2.374 26.441,2.269 26.028,2.187 25.608,2.131 25.465,2.112 25.329,2.104 25.191,2.098 L 25.108,2.094 25.004,2.084 C 24.791,2.066 24.578,2.049 24.364,2.048 h -0.03 c -0.342,0 -0.698,0.021 -1.088,0.065 -0.079,0.009 -0.163,0.022 -0.248,0.035 L 22.942,2.156 C 22.671,2.195 22.393,2.248 22.118,2.312 L 22.036,2.331 C 21.949,2.352 21.861,2.373 21.775,2.398 21.433,2.49 21.109,2.596 20.8,2.717 20.76,2.732 20.714,2.75 20.68,2.766 20.393,2.88 20.056,3.042 19.692,3.241 19.612,3.286 19.535,3.332 19.459,3.378 L 19.404,3.41 C 19.168,3.549 18.922,3.711 18.68,3.887 18.598,3.944 18.499,4.016 18.403,4.092 18.057,4.362 17.773,4.61 17.512,4.871 17.215,5.167 16.932,5.498 16.621,5.913 16.549,6.01 16.483,6.1 16.419,6.192 16.157,6.57 15.941,6.927 15.756,7.287 15.709,7.381 15.67,7.467 15.633,7.554 15.619,7.585 15.605,7.615 15.59,7.647 L 11.946,3.871 C 10.76,2.687 9.301,2.047 7.815,2.047 z"
       style="fill:#ffffff" />
  </g>
  <path
     d="M7.815 4.047c0.979 0 1.944 0.466 2.692 1.213l5.27 5.459c-0.15 1.362 0.001 2.763 0.514 4.088l-2.455 2.455c-0.078 0.005-0.15 0.017-0.231 0.017-0.98 0-1.604-0.372-2.603-1.119v0.001l-2.274-2.167-3.607-3.499c-0.746-0.746-1.121-1.714-1.121-2.693s0.367-1.932 1.116-2.68c0.747-0.747 1.72-1.075 2.699-1.075zM24.335 4.048h0.021c0.201 0.001 0.401 0.023 0.603 0.040 0.128 0.010 0.259 0.009 0.387 0.025 0.328 0.044 0.654 0.108 0.976 0.195l-4.688 4.687 0.903 4.515 4.516 0.903 4.686-4.686c0.681 2.554 0.026 5.39-1.978 7.395-0.265 0.265-0.55 0.497-0.84 0.714-0.062 0.047-0.125 0.095-0.188 0.14-0.289 0.201-0.586 0.384-0.894 0.54-0.050 0.024-0.102 0.046-0.151 0.069-0.285 0.139-0.576 0.257-0.873 0.355-0.056 0.019-0.11 0.041-0.167 0.058-0.325 0.102-0.656 0.178-0.99 0.234-0.072 0.011-0.144 0.020-0.215 0.030-0.332 0.047-0.665 0.077-0.999 0.079-0.015 0-0.028 0.002-0.042 0.002h-0.017c-0.344 0-0.686-0.029-1.026-0.075-0.099-0.014-0.195-0.034-0.294-0.050-0.258-0.045-0.515-0.104-0.769-0.175-0.099-0.027-0.197-0.054-0.295-0.085-0.336-0.108-0.668-0.233-0.989-0.39l-12.244 12.247c-0.489 0.489-1.129 0.733-1.768 0.733s-1.28-0.244-1.768-0.732c-0.977-0.977-0.977-2.559 0-3.536l12.246-12.246c-0.040-0.083-0.063-0.172-0.1-0.256-0.023-0.051-0.042-0.103-0.062-0.156-0.374-0.9-0.581-1.85-0.6-2.808-0.004-0.177 0.007-0.354 0.015-0.532 0.008-0.152 0.020-0.303 0.036-0.455 0.018-0.165 0.033-0.331 0.062-0.495 0.049-0.277 0.114-0.553 0.194-0.825 0.037-0.128 0.083-0.254 0.127-0.381 0.082-0.233 0.175-0.464 0.28-0.689 0.036-0.078 0.067-0.159 0.106-0.236 0.152-0.297 0.33-0.585 0.523-0.864 0.052-0.074 0.105-0.147 0.16-0.221 0.216-0.287 0.445-0.568 0.707-0.83 0.226-0.225 0.465-0.427 0.71-0.619 0.072-0.056 0.146-0.109 0.221-0.162 0.187-0.136 0.377-0.262 0.572-0.377 0.075-0.045 0.149-0.092 0.226-0.134 0.264-0.145 0.535-0.279 0.812-0.39 0.014-0.006 0.029-0.010 0.043-0.016 0.265-0.104 0.534-0.19 0.809-0.265 0.083-0.023 0.168-0.042 0.252-0.062 0.219-0.051 0.439-0.093 0.661-0.125 0.080-0.012 0.159-0.025 0.239-0.034 0.288-0.034 0.576-0.054 0.864-0.054zM21.239 19.758c0.344 0.133 0.698 0.234 1.056 0.322l1.413 1.523 4.231 1.631 4.061 5.252-3.462 3.466-5.245-4.061-1.617-4.232-2.247-2.091 1.81-1.81zM7.815 2.047c-1.581 0-3.041 0.589-4.112 1.659-1.099 1.099-1.704 2.554-1.703 4.098 0 1.545 0.605 3.003 1.706 4.104l3.63 3.522 2.286 2.18c0.057 0.054 0.119 0.106 0.183 0.154 0.418 0.312 0.829 0.605 1.266 0.847l-7.253 7.254c-1.755 1.754-1.755 4.61 0 6.364 0.85 0.85 1.979 1.318 3.182 1.318s2.332-0.469 3.181-1.318l8.564-8.565 1.228 1.144 1.451 3.798c0.131 0.342 0.354 0.642 0.644 0.867l5.245 4.061c0.362 0.282 0.794 0.419 1.224 0.419 0.516 0 1.028-0.197 1.416-0.587l3.462-3.465c0.711-0.712 0.782-1.841 0.167-2.636l-4.061-5.254c-0.224-0.289-0.521-0.512-0.862-0.644l-1.296-0.499c0.027-0.009 0.055-0.019 0.082-0.029 0.378-0.127 0.752-0.277 1.112-0.452 0.074-0.032 0.133-0.061 0.19-0.089 0.373-0.189 0.743-0.413 1.128-0.682 0.079-0.055 0.145-0.104 0.209-0.152 0.448-0.334 0.785-0.621 1.091-0.929 2.427-2.427 3.383-6.001 2.496-9.325-0.185-0.69-0.724-1.23-1.414-1.416-0.172-0.046-0.346-0.068-0.519-0.068-0.523 0-1.034 0.206-1.414 0.586l-3.929 3.929-2.159-0.431-0.432-2.159 3.931-3.93c0.506-0.506 0.703-1.242 0.517-1.933s-0.725-1.229-1.416-1.414c-0.395-0.105-0.808-0.187-1.228-0.243-0.143-0.019-0.279-0.027-0.417-0.033l-0.083-0.004-0.104-0.010c-0.213-0.018-0.426-0.035-0.64-0.036h-0.030c-0.342 0-0.698 0.021-1.088 0.065-0.079 0.009-0.163 0.022-0.248 0.035l-0.056 0.008c-0.271 0.039-0.549 0.092-0.824 0.156l-0.082 0.019c-0.087 0.021-0.175 0.042-0.261 0.067-0.342 0.092-0.666 0.198-0.975 0.319-0.040 0.015-0.086 0.033-0.12 0.049-0.287 0.114-0.624 0.276-0.988 0.475-0.080 0.045-0.157 0.091-0.233 0.137l-0.055 0.032c-0.236 0.139-0.482 0.301-0.724 0.477-0.082 0.057-0.181 0.129-0.277 0.205-0.346 0.27-0.63 0.518-0.891 0.779-0.297 0.296-0.58 0.627-0.891 1.042-0.072 0.097-0.138 0.187-0.202 0.279-0.262 0.378-0.478 0.735-0.663 1.095-0.047 0.094-0.086 0.18-0.123 0.267-0.014 0.031-0.028 0.061-0.043 0.093l-3.644-3.776c-1.186-1.184-2.645-1.824-4.131-1.824z"
     fill="rgb(68, 68, 68)"
     id="path4451" />
</svg>
